PathFileType	4	(X/Y/Z)	Patient4_TMGait_0pt2_01_right_04.trc.trc
DataRate	CameraRate	NumFrames	NumMarkers	Units	OrigDataRate	OrigDataStartFrame	OrigNumFrames
43.887147335423	43.887147335423	5	33	mm	43.887147335423	18	       141
Frame#	Time	Sacral			L.Shoulder			Chest			R.Shoulder			Neck			R.ASIS			L.ASIS			R.Thigh.Superior			R.Thigh.Lateral			R.Thigh.Inferior			R.Patella			L.Thigh.Superior			L.Thigh.Lateral			L.Thigh.Inferior			L.Patella			L.Shank.Superior			L.Shank.Lateral			L.Shank.Inferior			R.Shank.Superior			R.Shank.Lateral			R.Shank.Inferior			R.Heel			R.Midfoot.Superior			R.Midfoot.Lateral			R.Toe			L.Heel			L.Midfoot.Lateral			L.Midfoot.Superior			L.Toe			L.Elbow			L.Wrist			R.Elbow			R.Wrist			
		X1	Y1	Z1	X2	Y2	Z2	X3	Y3	Z3	X4	Y4	Z4	X5	Y5	Z5	X6	Y6	Z6	X7	Y7	Z7	X8	Y8	Z8	X9	Y9	Z9	X10	Y10	Z10	X11	Y11	Z11	X12	Y12	Z12	X13	Y13	Z13	X14	Y14	Z14	X15	Y15	Z15	X16	Y16	Z16	X17	Y17	Z17	X18	Y18	Z18	X19	Y19	Z19	X20	Y20	Z20	X21	Y21	Z21	X22	Y22	Z22	X23	Y23	Z23	X24	Y24	Z24	X25	Y25	Z25	X26	Y26	Z26	X27	Y27	Z27	X28	Y28	Z28	X29	Y29	Z29	X30	Y30	Z30	X31	Y31	Z31	X32	Y32	Z32	X33	Y33	Z33	

18	7.417357142857	787.466238494205	1017.565886715378	409.394573479557	1029.081513856642	1427.775869205386	253.384918346132	1098.228659378549	1357.404412797763	430.410751989729	991.661194310945	1442.082163529643	585.896006015798	988.209327770462	1493.778574281511	411.288547354595	992.961892060936	946.037796331636	561.920277677257	1020.746865570519	952.964308926730	288.723296228364	1055.463069871852	763.857971533395	541.958295307081	999.022105895509	650.528417355916	613.815007151837	1084.025800852145	603.114279649378	537.690539714994	1106.240536774248	514.815490615484	560.587477399269	1037.103221083506	732.417236091283	327.787799327506	942.410986220816	623.861289820027	258.917934420689	1006.086137096209	540.541085158100	334.009530401481	995.602919574292	472.121864746278	344.567539899473	959.931872844956	403.670157691783	334.374247191953	861.979706617891	300.680523872498	276.815121443817	887.102068977152	186.151083779685	354.085997696598	1074.730019927799	425.860501807362	573.442416541533	999.604441322392	329.743266338872	641.861299455580	1047.506364539934	229.499532894350	593.472098454752	917.305909255516	59.517788248233	575.387570764679	1087.742622325834	114.269271235195	609.282010691002	1002.832106325554	50.013866323416	647.470793178106	1207.945568453639	66.468554054486	635.321036321007	739.328541036070	39.724195733431	387.369885795853	816.571488871150	35.888626469393	310.213632616764	900.182268100780	95.630477832391	340.864821333949	1028.712680235331	40.008480008115	316.309853028386	1142.969027753502	1146.726364028534	73.418809579438	1401.234320811042	1117.064187838450	91.370488773077	827.964872377416	1136.280608209578	685.903173248590	808.864381521871	874.863152234581	692.040793263631	
19	7.440142857143	789.107328893986	1017.069701109105	412.372454405100	1031.101967486655	1426.767643274012	257.141228997144	1099.486959353974	1356.923152327484	434.696985262613	992.139847166253	1442.053931121658	589.413106738001	989.463690067553	1493.229588597304	414.681936504067	993.566754326886	945.307044397843	566.386532760578	1023.037737908842	952.338502753440	293.139313697255	1054.339493193915	761.858236025274	546.596979000131	996.095023097158	648.694045842596	617.217729579713	1080.827817677129	601.530974821775	540.908113528654	1102.490412107343	515.605381975080	562.257499599490	1036.619383783112	731.030622333921	331.915068172970	941.077592860454	623.873808437174	261.284599977427	1002.974043683080	539.530129448346	336.471043546238	991.495726983362	471.459434901150	346.589163507163	955.960122538423	403.332833502284	335.806910955038	857.717714841435	300.817101060237	277.691078612938	882.652455223309	185.956553529238	354.664039756943	1076.363196532946	425.650551509044	575.459135704749	1007.423960052395	324.597005709734	644.908265391006	1060.425038480270	226.838827000872	595.349142997888	938.316838681296	50.451269985027	578.689168982149	1107.601101570374	112.090437715767	609.932718431824	1025.785306743757	43.718602801716	649.277933406868	1230.962083702924	69.111609334691	633.512413376875	734.683754034626	39.514939906213	387.315368783173	811.897309162360	35.752075369203	310.177373468442	895.499738245594	95.587586994896	340.927455710177	1024.048790720899	40.059589106460	316.324278241786	1148.545474499240	1146.983864907147	78.660914726591	1407.153906800349	1123.344385687825	97.973542760957	829.295318264438	1135.942698645790	689.263684821155	811.413935303354	874.418673877213	696.139062132698	
20	7.462928571429	791.320194219328	1016.135406887610	416.114778184340	1032.619579821243	1425.797628832075	261.472755021622	1100.763158385791	1356.435062601736	439.328804843719	992.879918988791	1441.675222051043	593.616703467330	990.546865842054	1492.532065204850	418.772108288370	995.196552101988	944.262422946901	571.010878041517	1025.665462381586	951.696659976274	297.694208455538	1054.568794680138	759.678370555073	551.254724518318	994.449726323291	646.465859719296	620.547229990462	1079.208413952942	599.700179157197	544.200221174898	1099.808350176861	515.591461979661	563.960785251689	1036.578039418736	729.515903382706	335.993591526934	939.996340683421	623.809436720709	263.782963841009	1000.168577514587	538.410018025606	338.914600888941	987.691746803706	470.693664808559	348.604985851088	952.231266540952	402.908371490891	337.267901733365	853.551793511646	300.970975384625	278.603674494828	878.262208878082	185.733689008510	355.246457990691	1078.086442283437	424.925360418725	577.358475170292	1014.082921643390	320.189753131012	647.417610942687	1070.877096427698	224.595870234711	596.765464763159	954.989983996711	44.306309346965	580.935865362245	1123.314687907192	110.282271674972	610.305795941282	1043.668032954994	39.374894561533	650.414972595114	1248.544718481857	70.400631597000	631.907404554953	730.025300464536	39.305082258947	387.250343793602	807.216835447738	35.610715689772	310.135653165295	890.817463761437	95.551774793083	340.973903995031	1019.376337879489	40.110695260680	316.336211350432	1153.218118184497	1146.980520869272	84.356884780771	1412.027383461330	1128.592587758177	104.827106903787	831.774458450386	1134.711834390477	693.489888888065	815.386791588203	872.994611509728	701.214707072906	
21	7.485714285714	794.107253328168	1014.829949688523	420.609771309738	1033.672255134831	1424.927551248574	266.357895728062	1102.078799117756	1356.000365274930	444.293820635359	993.890678177926	1441.008384410947	598.486943812033	991.477397220264	1491.740959739042	423.538886682922	997.879506437863	943.016355196627	575.789987224884	1028.642211524856	951.078326191294	302.387063029398	1056.251632933180	757.477474267204	555.848161593361	994.307199155445	644.003903851720	623.772131967388	1079.335938898804	597.750893519667	547.497460459677	1098.513176366591	514.845014376904	565.696678163258	1036.994279093439	727.910669211504	340.001148773352	939.145685513182	623.712864959502	266.435816505013	997.680966430143	537.225990849324	341.338941760532	984.209996194113	469.863487762320	350.620529365219	948.756281055262	402.442785233930	338.763737456474	849.485709031558	301.198384353605	279.568416725714	873.943173180270	185.521107149455	355.818824326747	1080.060837721774	423.711225609438	579.111705784100	1019.576454857674	316.502159905987	649.378657717511	1078.782051008867	222.613964307265	597.702236365203	966.975543618575	40.679292520994	582.151541011869	1134.689538468374	108.672496119292	610.407440241235	1056.212272629644	36.705891360858	650.957488342386	1260.682819492814	70.230062382114	630.650426190480	725.362477433858	39.143747179524	387.170245600940	802.542924937169	35.492679525851	310.088412636707	886.156244244242	95.534925258032	340.996317682566	1014.704676019623	40.150086158236	316.341533811248	1156.951828808422	1146.731930814075	90.456380668074	1415.859995767914	1132.805400888970	111.872100663145	835.285076517645	1132.772635554058	698.607488802456	820.629522996451	870.821465112610	707.270710757816	
22	7.508500000000	797.438215087113	1013.250284550867	425.820539363147	1034.334146477088	1424.212203286843	271.745874155651	1103.460341262157	1355.678217322708	449.563204033648	995.175386534287	1440.140530605872	603.964861174439	992.290975684249	1490.921381467939	428.923323355139	1001.584519274054	941.707895761974	580.727683954578	1031.954433415804	950.523368428719	307.224765358093	1059.372162802308	755.397918036277	560.307560003878	995.782114888779	641.485882141885	626.897431959094	1081.218413052742	595.801630515182	550.735994926956	1098.795826730175	513.489107897773	567.455458758553	1037.858851623911	726.269635688336	343.934416839235	938.500038260951	623.640057249161	269.274412914406	995.525997995940	536.037456959077	343.753706464461	981.076560530121	469.017305105500	352.650059107293	945.550717226146	401.990243484829	340.308644230502	845.531585068655	301.565519382456	280.610483899121	869.715671706336	185.365774296507	356.370300016933	1082.418985059036	422.080102826250	580.697286957643	1024.034451150771	313.480463637279	650.849829854515	1084.272372936978	220.761446889535	598.178856229285	974.346016112557	39.043521648482	582.484223515382	1141.878432663888	107.131449787218	610.247491923497	1063.627399428252	35.365468418204	651.027454379726	1267.777159874736	68.684741642911	629.777123576529	720.709099522829	39.097871083879	387.071575436883	797.891204278041	35.437356743846	310.037071743953	881.542822928980	95.551681853114	340.989639197875	1010.045153425047	40.163094629848	316.336005027433	1159.737740308339	1146.240125440312	96.902736607673	1418.679088060552	1135.951159458279	119.044159488671	839.711346576583	1130.332064423493	704.598837715994	827.038237642120	868.144960496796	714.294011080602	
